{
  "accessors": [
    {
      "bufferView": 2,
      "componentType": 5126,
      "count": 65532,
      "max": [
        3.64333176612854,
        0.1415376365184784,
        1.5814663171768188
      ],
      "min": [
        -2.7282657623291016,
        -2.1383273601531982,
        -1.753976583480835
      ],
      "type": "VEC3"
    },
    {
      "bufferView": 2,
      "byteOffset": 786384,
      "componentType": 5126,
      "count": 65532,
      "max": [
        0.9999911785125732,
        1.0,
        0.9999903440475464
      ],
      "min": [
        -0.9999699592590332,
        -1.0,
        -0.9999975562095642
      ],
      "type": "VEC3"
    },
    {
      "bufferView": 1,
      "componentType": 5126,
      "count": 65532,
      "max": [
        0.9993994832038879,
        0.9987791776657104
      ],
      "min": [
        0.0005504313739947975,
        0.0002851678291335702
      ],
      "type": "VEC2"
    },
    {
      "bufferView": 0,
      "componentType": 5125,
      "count": 333885,
      "type": "SCALAR"
    },
    {
      "bufferView": 2,
      "byteOffset": 1572768,
      "componentType": 5126,
      "count": 65532,
      "max": [
        3.643059015274048,
        0.02986968494951725,
        1.5807727575302124
      ],
      "min": [
        -2.7281036376953125,
        -2.4192519187927246,
        -1.7540606260299683
      ],
      "type": "VEC3"
    },
    {
      "bufferView": 2,
      "byteOffset": 2359152,
      "componentType": 5126,
      "count": 65532,
      "max": [
        0.9999493956565857,
        0.9916146993637085,
        1.0
      ],
      "min": [
        -0.9998685121536255,
        -1.0,
        -0.9999922513961792
      ],
      "type": "VEC3"
    },
    {
      "bufferView": 1,
      "byteOffset": 524256,
      "componentType": 5126,
      "count": 65532,
      "max": [
        0.9992192983627319,
        0.9997557401657104
      ],
      "min": [
        0.000244140625,
        0.0002538157859817147
      ],
      "type": "VEC2"
    },
    {
      "bufferView": 0,
      "byteOffset": 1335540,
      "componentType": 5125,
      "count": 315975,
      "type": "SCALAR"
    },
    {
      "bufferView": 2,
      "byteOffset": 3145536,
      "componentType": 5126,
      "count": 65532,
      "max": [
        3.64414381980896,
        0.14118187129497528,
        1.5817984342575073
      ],
      "min": [
        -2.7289013862609863,
        -2.4194469451904297,
        -1.7570724487304688
      ],
      "type": "VEC3"
    },
    {
      "bufferView": 2,
      "byteOffset": 3931920,
      "componentType": 5126,
      "count": 65532,
      "max": [
        0.9999943971633911,
        1.0,
        0.999999463558197
      ],
      "min": [
        -0.9999802112579346,
        -1.0,
        -0.9999945759773254
      ],
      "type": "VEC3"
    },
    {
      "bufferView": 1,
      "byteOffset": 1048512,
      "componentType": 5126,
      "count": 65532,
      "max": [
        0.9997386932373047,
        0.9975435733795166
      ],
      "min": [
        0.000244140625,
        0.00024415983352810144
      ],
      "type": "VEC2"
    },
    {
      "bufferView": 0,
      "byteOffset": 2599440,
      "componentType": 5125,
      "count": 284721,
      "type": "SCALAR"
    },
    {
      "bufferView": 2,
      "byteOffset": 4718304,
      "componentType": 5126,
      "count": 53087,
      "max": [
        3.644176721572876,
        0.14069603383541107,
        1.5817984342575073
      ],
      "min": [
        -2.728914260864258,
        -2.418781280517578,
        -1.757346749305725
      ],
      "type": "VEC3"
    },
    {
      "bufferView": 2,
      "byteOffset": 5355348,
      "componentType": 5126,
      "count": 53087,
      "max": [
        0.9999823570251465,
        1.0,
        1.0
      ],
      "min": [
        -0.9999914765357971,
        -1.0,
        -0.9999977350234985
      ],
      "type": "VEC3"
    },
    {
      "bufferView": 1,
      "byteOffset": 1572768,
      "componentType": 5126,
      "count": 53087,
      "max": [
        0.9996455907821655,
        0.9994890093803406
      ],
      "min": [
        0.000244140625,
        0.0002458287635818124
      ],
      "type": "VEC2"
    },
    {
      "bufferView": 0,
      "byteOffset": 3738324,
      "componentType": 5125,
      "count": 126435,
      "type": "SCALAR"
    }
  ],
  "asset": {
    "extras": {
      "author": "tylerzhu3 (https://sketchfab.com/tylerzhu3)",
      "license": "CC-BY-4.0 (http://creativecommons.org/licenses/by/4.0/)",
      "source": "https://sketchfab.com/3d-models/gucci-shoes-f57538fb82794e90918ebced161156cc",
      "title": "Gucci Shoes"
    },
    "generator": "Sketchfab-12.66.0",
    "version": "2.0"
  },
  "bufferViews": [
    {
      "buffer": 0,
      "byteLength": 4244064,
      "name": "floatBufferViews",
      "target": 34963
    },
    {
      "buffer": 0,
      "byteLength": 1997464,
      "byteOffset": 4244064,
      "byteStride": 8,
      "name": "floatBufferViews",
      "target": 34962
    },
    {
      "buffer": 0,
      "byteLength": 5992392,
      "byteOffset": 6241528,
      "byteStride": 12,
      "name": "floatBufferViews",
      "target": 34962
    }
  ],
  "buffers": [
    {
      "byteLength": 12233920,
      "uri": "scene.bin"
    }
  ],
  "images": [
    {
      "uri": "textures/gucci_shoes_cleaned_u1_v1_baseColor.png"
    }
  ],
  "materials": [
    {
      "doubleSided": true,
      "name": "gucci_shoes_cleaned_u1_v1",
      "pbrMetallicRoughness": {
        "baseColorTexture": {
          "index": 0
        },
        "metallicFactor": 0.10489986311920277
      }
    }
  ],
  "meshes": [
    {
      "name": "Object_0",
      "primitives": [
        {
          "attributes": {
            "NORMAL": 1,
            "POSITION": 0,
            "TEXCOORD_0": 2
          },
          "indices": 3,
          "material": 0,
          "mode": 4
        }
      ]
    },
    {
      "name": "Object_1",
      "primitives": [
        {
          "attributes": {
            "NORMAL": 5,
            "POSITION": 4,
            "TEXCOORD_0": 6
          },
          "indices": 7,
          "material": 0,
          "mode": 4
        }
      ]
    },
    {
      "name": "Object_2",
      "primitives": [
        {
          "attributes": {
            "NORMAL": 9,
            "POSITION": 8,
            "TEXCOORD_0": 10
          },
          "indices": 11,
          "material": 0,
          "mode": 4
        }
      ]
    },
    {
      "name": "Object_3",
      "primitives": [
        {
          "attributes": {
            "NORMAL": 13,
            "POSITION": 12,
            "TEXCOORD_0": 14
          },
          "indices": 15,
          "material": 0,
          "mode": 4
        }
      ]
    }
  ],
  "nodes": [
    {
      "children": [
        1
      ],
      "matrix": [
        0.9999727010726929,
        0.007391153834760189,
        2.50852757116786e-18,
        0.0,
        0.007390925660729408,
        -0.9999417662620544,
        -0.007860694080591424,
        0.0,
        -5.8099598390981555e-05,
        0.007860479876399262,
        -0.9999691247940063,
        0.0,
        0.008425355888903141,
        -1.2293573617935183,
        1.0422348976135252,
        1.0
      ],
      "name": "Sketchfab_model"
    },
    {
      "children": [
        2,
        3,
        4,
        5
      ],
      "name": "gucci_shoes_cleaned.obj.cleaner.materialmerger.gles"
    },
    {
      "mesh": 0,
      "name": "Object_2"
    },
    {
      "mesh": 1,
      "name": "Object_3"
    },
    {
      "mesh": 2,
      "name": "Object_4"
    },
    {
      "mesh": 3,
      "name": "Object_5"
    }
  ],
  "samplers": [
    {
      "magFilter": 9729,
      "minFilter": 9987,
      "wrapS": 10497,
      "wrapT": 10497
    }
  ],
  "scene": 0,
  "scenes": [
    {
      "name": "Sketchfab_Scene",
      "nodes": [
        0
      ]
    }
  ],
  "textures": [
    {
      "sampler": 0,
      "source": 0
    }
  ]
}
