{
  "accessors": [
    {
      "bufferView": 2,
      "componentType": 5126,
      "count": 43548,
      "max": [
        3.4673099517822266,
        2.639509916305542,
        2.02059006690979
      ],
      "min": [
        -3.5163400173187256,
        -2.745270013809204,
        -2.0647900104522705
      ],
      "type": "VEC3"
    },
    {
      "bufferView": 2,
      "byteOffset": 522576,
      "componentType": 5126,
      "count": 43548,
      "max": [
        0.9997308850288391,
        0.9999804496765137,
        1.0
      ],
      "min": [
        -0.9999497532844543,
        -0.9999580979347229,
        -0.9374439716339111
      ],
      "type": "VEC3"
    },
    {
      "bufferView": 1,
      "componentType": 5126,
      "count": 43548,
      "max": [
        0.9925150275230408,
        0.9999799728393555
      ],
      "min": [
        7.999999979801942e-06,
        3.000000106112566e-06
      ],
      "type": "VEC2"
    },
    {
      "bufferView": 0,
      "componentType": 5125,
      "count": 234831,
      "type": "SCALAR"
    }
  ],
  "asset": {
    "extras": {
      "author": "rafapages (https://sketchfab.com/rafapages)",
      "license": "CC-BY-4.0 (http://creativecommons.org/licenses/by/4.0/)",
      "source": "https://sketchfab.com/3d-models/vans-sk8-hi-ef6b472ae19d46468678f5bc9b266060",
      "title": "Vans Sk8 Hi"
    },
    "generator": "Sketchfab-12.56.0",
    "version": "2.0"
  },
  "bufferViews": [
    {
      "buffer": 0,
      "byteLength": 939324,
      "name": "floatBufferViews",
      "target": 34963
    },
    {
      "buffer": 0,
      "byteLength": 348384,
      "byteOffset": 939324,
      "byteStride": 8,
      "name": "floatBufferViews",
      "target": 34962
    },
    {
      "buffer": 0,
      "byteLength": 1045152,
      "byteOffset": 1287708,
      "byteStride": 12,
      "name": "floatBufferViews",
      "target": 34962
    }
  ],
  "buffers": [
    {
      "byteLength": 2332860,
      "uri": "scene.bin"
    }
  ],
  "images": [
    {
      "uri": "textures/material_0_baseColor.png"
    }
  ],
  "materials": [
    {
      "doubleSided": true,
      "name": "material_0",
      "pbrMetallicRoughness": {
        "baseColorTexture": {
          "index": 0
        },
        "metallicFactor": 0.0
      }
    }
  ],
  "meshes": [
    {
      "name": "Object_0",
      "primitives": [
        {
          "attributes": {
            "NORMAL": 1,
            "POSITION": 0,
            "TEXCOORD_0": 2
          },
          "indices": 3,
          "material": 0,
          "mode": 4
        }
      ]
    }
  ],
  "nodes": [
    {
      "children": [
        1
      ],
      "matrix": [
        1.0,
        0.0,
        0.0,
        0.0,
        0.0,
        2.220446049250313e-16,
        -1.0,
        0.0,
        0.0,
        1.0,
        2.220446049250313e-16,
        0.0,
        0.0,
        0.0,
        0.0,
        1.0
      ],
      "name": "Sketchfab_model"
    },
    {
      "children": [
        2
      ],
      "name": "export-clean.obj.cleaner.materialmerger.gles"
    },
    {
      "mesh": 0,
      "name": "Object_2"
    }
  ],
  "samplers": [
    {
      "magFilter": 9729,
      "minFilter": 9987,
      "wrapS": 10497,
      "wrapT": 10497
    }
  ],
  "scene": 0,
  "scenes": [
    {
      "name": "Sketchfab_Scene",
      "nodes": [
        0
      ]
    }
  ],
  "textures": [
    {
      "sampler": 0,
      "source": 0
    }
  ]
}
